{
	"asset":{
		"generator":"Khronos glTF Blender I/O v5.0.21",
		"version":"2.0"
	},
	"scene":1,
	"scenes":[
		{
			"name":"Scene",
			"nodes":[
				0
			]
		},
		{
			"name":"Scene.001",
			"nodes":[
				1,
				2,
				3,
				4,
				5
			]
		},
		{
			"name":"Scene.002",
			"nodes":[
				6
			]
		}
	],
	"nodes":[
		{
			"mesh":0,
			"name":"Sphere"
		},
		{
			"mesh":1,
			"name":"Cube"
		},
		{
			"mesh":2,
			"name":"Text"
		},
		{
			"mesh":3,
			"name":"Cube.001"
		},
		{
			"mesh":4,
			"name":"Cube.002"
		},
		{
			"mesh":5,
			"name":"Cylinder",
			"translation":[
				0,
				-128.95204162597656,
				-447.7835388183594
			]
		},
		{
			"mesh":6,
			"name":"platform.001"
		}
	],
	"materials":[
		{
			"doubleSided":true,
			"name":"Material.002",
			"pbrMetallicRoughness":{
				"baseColorTexture":{
					"index":0
				},
				"metallicFactor":0
			}
		},
		{
			"doubleSided":true,
			"name":"checker",
			"pbrMetallicRoughness":{
				"baseColorTexture":{
					"index":1
				},
				"metallicFactor":0
			}
		},
		{
			"doubleSided":true,
			"name":"dirt brown",
			"pbrMetallicRoughness":{
				"baseColorFactor":[
					0.12655512988567352,
					0.056085750460624695,
					0.0233723483979702,
					1
				],
				"metallicFactor":0
			}
		},
		{
			"doubleSided":true,
			"name":"purp",
			"pbrMetallicRoughness":{
				"baseColorFactor":[
					0.8000074625015259,
					0,
					0.7565517425537109,
					1
				],
				"metallicFactor":0,
				"roughnessFactor":0.5
			}
		},
		{
			"doubleSided":true,
			"name":"dirt brown.001",
			"pbrMetallicRoughness":{
				"baseColorFactor":[
					0.12655512988567352,
					0.056085750460624695,
					0.0233723483979702,
					1
				],
				"metallicFactor":0
			}
		}
	],
	"meshes":[
		{
			"name":"Sphere.001",
			"primitives":[
				{
					"attributes":{
						"POSITION":0,
						"NORMAL":1,
						"TEXCOORD_0":2
					},
					"indices":3,
					"material":0
				}
			]
		},
		{
			"name":"Cube.002",
			"primitives":[
				{
					"attributes":{
						"POSITION":4,
						"NORMAL":5,
						"TEXCOORD_0":6
					},
					"indices":7,
					"material":1
				},
				{
					"attributes":{
						"POSITION":8,
						"NORMAL":9,
						"TEXCOORD_0":10
					},
					"indices":11,
					"material":2
				}
			]
		},
		{
			"name":"Text",
			"primitives":[
				{
					"attributes":{
						"POSITION":12,
						"NORMAL":13,
						"TEXCOORD_0":14
					},
					"indices":15,
					"material":3
				}
			]
		},
		{
			"name":"Cube.003",
			"primitives":[
				{
					"attributes":{
						"POSITION":16,
						"NORMAL":17,
						"TEXCOORD_0":18
					},
					"indices":19,
					"material":1
				}
			]
		},
		{
			"name":"Cube.004",
			"primitives":[
				{
					"attributes":{
						"POSITION":20,
						"NORMAL":21,
						"TEXCOORD_0":22
					},
					"indices":23,
					"material":1
				},
				{
					"attributes":{
						"POSITION":24,
						"NORMAL":25,
						"TEXCOORD_0":26
					},
					"indices":27,
					"material":2
				}
			]
		},
		{
			"name":"Cylinder.003",
			"primitives":[
				{
					"attributes":{
						"POSITION":28,
						"NORMAL":29,
						"TEXCOORD_0":30
					},
					"indices":31,
					"material":2
				},
				{
					"attributes":{
						"POSITION":32,
						"NORMAL":33,
						"TEXCOORD_0":34
					},
					"indices":35,
					"material":1
				}
			]
		},
		{
			"name":"Cube.006",
			"primitives":[
				{
					"attributes":{
						"POSITION":36,
						"NORMAL":37,
						"TEXCOORD_0":38
					},
					"indices":39,
					"material":1
				},
				{
					"attributes":{
						"POSITION":40,
						"NORMAL":41,
						"TEXCOORD_0":42
					},
					"indices":43,
					"material":4
				}
			]
		}
	],
	"textures":[
		{
			"sampler":0,
			"source":0
		},
		{
			"sampler":0,
			"source":1
		}
	],
	"images":[
		{
			"mimeType":"image/jpeg",
			"name":"monkeyberry",
			"uri":"monkeyberry.jpg"
		},
		{
			"mimeType":"image/png",
			"name":"checker",
			"uri":"checker.png"
		}
	],
	"accessors":[
		{
			"bufferView":0,
			"componentType":5126,
			"count":497,
			"max":[
				0.9980542659759521,
				1,
				0.9980146288871765
			],
			"min":[
				-0.997970461845398,
				-1,
				-0.9980088472366333
			],
			"type":"VEC3"
		},
		{
			"bufferView":1,
			"componentType":5126,
			"count":497,
			"type":"VEC3"
		},
		{
			"bufferView":2,
			"componentType":5126,
			"count":497,
			"type":"VEC2"
		},
		{
			"bufferView":3,
			"componentType":5123,
			"count":2880,
			"type":"SCALAR"
		},
		{
			"bufferView":4,
			"componentType":5126,
			"count":16,
			"max":[
				13.865804672241211,
				-0.079742431640625,
				19.260120391845703
			],
			"min":[
				-13.865811347961426,
				-0.079742431640625,
				-41.48257827758789
			],
			"type":"VEC3"
		},
		{
			"bufferView":5,
			"componentType":5126,
			"count":16,
			"type":"VEC3"
		},
		{
			"bufferView":6,
			"componentType":5126,
			"count":16,
			"type":"VEC2"
		},
		{
			"bufferView":7,
			"componentType":5123,
			"count":48,
			"type":"SCALAR"
		},
		{
			"bufferView":8,
			"componentType":5126,
			"count":64,
			"max":[
				13.865804672241211,
				-0.079742431640625,
				19.260120391845703
			],
			"min":[
				-13.865811347961426,
				-1.7012481689453125,
				-41.48257827758789
			],
			"type":"VEC3"
		},
		{
			"bufferView":9,
			"componentType":5126,
			"count":64,
			"type":"VEC3"
		},
		{
			"bufferView":10,
			"componentType":5126,
			"count":64,
			"type":"VEC2"
		},
		{
			"bufferView":11,
			"componentType":5123,
			"count":144,
			"type":"SCALAR"
		},
		{
			"bufferView":12,
			"componentType":5126,
			"count":8248,
			"max":[
				48.69052505493164,
				-43.116329193115234,
				-414.821044921875
			],
			"min":[
				-55.63972091674805,
				-52.634822845458984,
				-426.1316223144531
			],
			"type":"VEC3"
		},
		{
			"bufferView":13,
			"componentType":5126,
			"count":8248,
			"type":"VEC3"
		},
		{
			"bufferView":14,
			"componentType":5126,
			"count":8248,
			"type":"VEC2"
		},
		{
			"bufferView":15,
			"componentType":5123,
			"count":23418,
			"type":"SCALAR"
		},
		{
			"bufferView":16,
			"componentType":5126,
			"count":64,
			"max":[
				6.8359599113464355,
				-11.294082641601562,
				-18.7454833984375
			],
			"min":[
				-6.83603048324585,
				-86.51252746582031,
				-195.3351287841797
			],
			"type":"VEC3"
		},
		{
			"bufferView":17,
			"componentType":5126,
			"count":64,
			"type":"VEC3"
		},
		{
			"bufferView":18,
			"componentType":5126,
			"count":64,
			"type":"VEC2"
		},
		{
			"bufferView":19,
			"componentType":5123,
			"count":96,
			"type":"SCALAR"
		},
		{
			"bufferView":20,
			"componentType":5126,
			"count":64,
			"max":[
				65.86752319335938,
				-98.33518981933594,
				-170.7736358642578
			],
			"min":[
				-65.86767578125,
				-103.62091827392578,
				-302.5088806152344
			],
			"type":"VEC3"
		},
		{
			"bufferView":21,
			"componentType":5126,
			"count":64,
			"type":"VEC3"
		},
		{
			"bufferView":22,
			"componentType":5126,
			"count":64,
			"type":"VEC2"
		},
		{
			"bufferView":23,
			"componentType":5123,
			"count":144,
			"type":"SCALAR"
		},
		{
			"bufferView":24,
			"componentType":5126,
			"count":52,
			"max":[
				65.86752319335938,
				-100.42678833007812,
				-170.7736358642578
			],
			"min":[
				-65.86767578125,
				-108.48908233642578,
				-302.5088806152344
			],
			"type":"VEC3"
		},
		{
			"bufferView":25,
			"componentType":5126,
			"count":52,
			"type":"VEC3"
		},
		{
			"bufferView":26,
			"componentType":5126,
			"count":52,
			"type":"VEC2"
		},
		{
			"bufferView":27,
			"componentType":5123,
			"count":132,
			"type":"SCALAR"
		},
		{
			"bufferView":28,
			"componentType":5126,
			"count":54,
			"max":[
				47.0105094909668,
				29.20751953125,
				64.98150634765625
			],
			"min":[
				-47.01051330566406,
				-38.81834411621094,
				-65.81985473632812
			],
			"type":"VEC3"
		},
		{
			"bufferView":29,
			"componentType":5126,
			"count":54,
			"type":"VEC3"
		},
		{
			"bufferView":30,
			"componentType":5126,
			"count":54,
			"type":"VEC2"
		},
		{
			"bufferView":31,
			"componentType":5123,
			"count":132,
			"type":"SCALAR"
		},
		{
			"bufferView":32,
			"componentType":5126,
			"count":72,
			"max":[
				47.0105094909668,
				29.20751953125,
				64.98150634765625
			],
			"min":[
				-47.01051330566406,
				-17.802993774414062,
				-65.81985473632812
			],
			"type":"VEC3"
		},
		{
			"bufferView":33,
			"componentType":5126,
			"count":72,
			"type":"VEC3"
		},
		{
			"bufferView":34,
			"componentType":5126,
			"count":72,
			"type":"VEC2"
		},
		{
			"bufferView":35,
			"componentType":5123,
			"count":108,
			"type":"SCALAR"
		},
		{
			"bufferView":36,
			"componentType":5126,
			"count":20,
			"max":[
				10,
				0.8512824177742004,
				10
			],
			"min":[
				-10,
				0.29743510484695435,
				-10
			],
			"type":"VEC3"
		},
		{
			"bufferView":37,
			"componentType":5126,
			"count":20,
			"type":"VEC3"
		},
		{
			"bufferView":38,
			"componentType":5126,
			"count":20,
			"type":"VEC2"
		},
		{
			"bufferView":39,
			"componentType":5123,
			"count":30,
			"type":"SCALAR"
		},
		{
			"bufferView":40,
			"componentType":5126,
			"count":20,
			"max":[
				10,
				0.29743510484695435,
				10
			],
			"min":[
				-10,
				-1.1487175226211548,
				-10
			],
			"type":"VEC3"
		},
		{
			"bufferView":41,
			"componentType":5126,
			"count":20,
			"type":"VEC3"
		},
		{
			"bufferView":42,
			"componentType":5126,
			"count":20,
			"type":"VEC2"
		},
		{
			"bufferView":43,
			"componentType":5123,
			"count":30,
			"type":"SCALAR"
		}
	],
	"bufferViews":[
		{
			"buffer":0,
			"byteLength":5964,
			"byteOffset":0,
			"target":34962
		},
		{
			"buffer":0,
			"byteLength":5964,
			"byteOffset":5964,
			"target":34962
		},
		{
			"buffer":0,
			"byteLength":3976,
			"byteOffset":11928,
			"target":34962
		},
		{
			"buffer":0,
			"byteLength":5760,
			"byteOffset":15904,
			"target":34963
		},
		{
			"buffer":0,
			"byteLength":192,
			"byteOffset":21664,
			"target":34962
		},
		{
			"buffer":0,
			"byteLength":192,
			"byteOffset":21856,
			"target":34962
		},
		{
			"buffer":0,
			"byteLength":128,
			"byteOffset":22048,
			"target":34962
		},
		{
			"buffer":0,
			"byteLength":96,
			"byteOffset":22176,
			"target":34963
		},
		{
			"buffer":0,
			"byteLength":768,
			"byteOffset":22272,
			"target":34962
		},
		{
			"buffer":0,
			"byteLength":768,
			"byteOffset":23040,
			"target":34962
		},
		{
			"buffer":0,
			"byteLength":512,
			"byteOffset":23808,
			"target":34962
		},
		{
			"buffer":0,
			"byteLength":288,
			"byteOffset":24320,
			"target":34963
		},
		{
			"buffer":0,
			"byteLength":98976,
			"byteOffset":24608,
			"target":34962
		},
		{
			"buffer":0,
			"byteLength":98976,
			"byteOffset":123584,
			"target":34962
		},
		{
			"buffer":0,
			"byteLength":65984,
			"byteOffset":222560,
			"target":34962
		},
		{
			"buffer":0,
			"byteLength":46836,
			"byteOffset":288544,
			"target":34963
		},
		{
			"buffer":0,
			"byteLength":768,
			"byteOffset":335380,
			"target":34962
		},
		{
			"buffer":0,
			"byteLength":768,
			"byteOffset":336148,
			"target":34962
		},
		{
			"buffer":0,
			"byteLength":512,
			"byteOffset":336916,
			"target":34962
		},
		{
			"buffer":0,
			"byteLength":192,
			"byteOffset":337428,
			"target":34963
		},
		{
			"buffer":0,
			"byteLength":768,
			"byteOffset":337620,
			"target":34962
		},
		{
			"buffer":0,
			"byteLength":768,
			"byteOffset":338388,
			"target":34962
		},
		{
			"buffer":0,
			"byteLength":512,
			"byteOffset":339156,
			"target":34962
		},
		{
			"buffer":0,
			"byteLength":288,
			"byteOffset":339668,
			"target":34963
		},
		{
			"buffer":0,
			"byteLength":624,
			"byteOffset":339956,
			"target":34962
		},
		{
			"buffer":0,
			"byteLength":624,
			"byteOffset":340580,
			"target":34962
		},
		{
			"buffer":0,
			"byteLength":416,
			"byteOffset":341204,
			"target":34962
		},
		{
			"buffer":0,
			"byteLength":264,
			"byteOffset":341620,
			"target":34963
		},
		{
			"buffer":0,
			"byteLength":648,
			"byteOffset":341884,
			"target":34962
		},
		{
			"buffer":0,
			"byteLength":648,
			"byteOffset":342532,
			"target":34962
		},
		{
			"buffer":0,
			"byteLength":432,
			"byteOffset":343180,
			"target":34962
		},
		{
			"buffer":0,
			"byteLength":264,
			"byteOffset":343612,
			"target":34963
		},
		{
			"buffer":0,
			"byteLength":864,
			"byteOffset":343876,
			"target":34962
		},
		{
			"buffer":0,
			"byteLength":864,
			"byteOffset":344740,
			"target":34962
		},
		{
			"buffer":0,
			"byteLength":576,
			"byteOffset":345604,
			"target":34962
		},
		{
			"buffer":0,
			"byteLength":216,
			"byteOffset":346180,
			"target":34963
		},
		{
			"buffer":0,
			"byteLength":240,
			"byteOffset":346396,
			"target":34962
		},
		{
			"buffer":0,
			"byteLength":240,
			"byteOffset":346636,
			"target":34962
		},
		{
			"buffer":0,
			"byteLength":160,
			"byteOffset":346876,
			"target":34962
		},
		{
			"buffer":0,
			"byteLength":60,
			"byteOffset":347036,
			"target":34963
		},
		{
			"buffer":0,
			"byteLength":240,
			"byteOffset":347096,
			"target":34962
		},
		{
			"buffer":0,
			"byteLength":240,
			"byteOffset":347336,
			"target":34962
		},
		{
			"buffer":0,
			"byteLength":160,
			"byteOffset":347576,
			"target":34962
		},
		{
			"buffer":0,
			"byteLength":60,
			"byteOffset":347736,
			"target":34963
		}
	],
	"samplers":[
		{
			"magFilter":9729,
			"minFilter":9987
		}
	],
	"buffers":[
		{
			"byteLength":347796,
			"uri":"monkeymap1.bin"
		}
	]
}
